<?xml version="1.0" encoding="iso-8859-1"?>
<!-- Generator: Adobe Illustrator 19.0.0, SVG Export Plug-In . SVG Version: 6.00 Build 0)  -->
<svg version="1.1" id="Capa_1" xmlns="http://www.w3.org/2000/svg" xmlns:xlink="http://www.w3.org/1999/xlink" x="0px" y="0px"
	 viewBox="0 0 512 512" style="enable-background:new 0 0 512 512;" xml:space="preserve">
<g>
	<g>
		<path d="M320,32c-23.904,0-46.816,8.864-64.544,24.96c-6.528,5.952-7.008,16.064-1.056,22.592
			c5.952,6.56,16.096,7.04,22.592,1.088C288.8,69.92,304.064,64,320,64c35.296,0,64,28.704,64,64
			c0,30.592-21.728,56.96-51.648,62.688c-8.672,1.664-14.368,10.048-12.704,18.72c1.472,7.648,8.16,12.992,15.712,12.992
			c0.992,0,2.016-0.096,3.04-0.288C383.328,213.504,416,173.92,416,128C416,75.072,372.928,32,320,32z"/>
	</g>
</g>
<g>
	<g>
		<path d="M511.872,335.328c-0.064-1.152-0.384-2.208-0.672-3.296c-0.256-0.928-0.384-1.888-0.8-2.752
			c-0.384-0.864-1.024-1.568-1.568-2.336c-0.672-0.928-1.28-1.888-2.112-2.656c-0.16-0.16-0.256-0.384-0.448-0.544
			C451.104,277.472,381.6,253.632,310.08,256.32c-8.8,0.352-15.68,7.776-15.36,16.608c0.32,8.832,8.192,16.352,16.608,15.36
			C372.48,286.016,431.904,305.76,480,343.904V384h-48c-8.832,0-16,7.168-16,16c0,8.832,7.168,16,16,16h48c17.632,0,32-14.368,32-32
			v-48C512,335.744,511.872,335.552,511.872,335.328z"/>
	</g>
</g>
<g>
	<g>
		<path d="M192,96c-52.928,0-96,43.072-96,96s43.072,96,96,96c52.928,0,96-43.072,96-96C288,139.072,244.928,96,192,96z M192,256
			c-35.296,0-64-28.704-64-64s28.704-64,64-64s64,28.704,64,64S227.296,256,192,256z"/>
	</g>
</g>
<g>
	<g>
		<path d="M383.872,399.328c-0.064-1.152-0.384-2.208-0.672-3.296c-0.256-0.928-0.384-1.888-0.8-2.752
			c-0.384-0.864-1.024-1.568-1.6-2.368c-0.672-0.928-1.248-1.856-2.112-2.624c-0.192-0.16-0.256-0.384-0.448-0.544
			c-107.936-90.464-264.64-90.464-372.576,0c-0.192,0.16-0.256,0.384-0.448,0.544c-0.832,0.768-1.44,1.696-2.112,2.656
			c-0.544,0.8-1.184,1.504-1.568,2.336c-0.416,0.864-0.544,1.824-0.8,2.752c-0.288,1.088-0.608,2.144-0.672,3.296
			C0.128,399.552,0,399.744,0,400v48c0,17.632,14.368,32,32,32h320c17.632,0,32-14.368,32-32v-48
			C384,399.744,383.872,399.552,383.872,399.328z M352,448H32v-40.096c93.888-74.4,226.112-74.4,320,0V448z"/>
	</g>
</g>
<g>
</g>
<g>
</g>
<g>
</g>
<g>
</g>
<g>
</g>
<g>
</g>
<g>
</g>
<g>
</g>
<g>
</g>
<g>
</g>
<g>
</g>
<g>
</g>
<g>
</g>
<g>
</g>
<g>
</g>
</svg>
