<?xml version="1.0" encoding="iso-8859-1"?><svg viewBox="0 0 512 512" xmlns="http://www.w3.org/2000/svg" xmlns:xlink="http://www.w3.org/1999/xlink"><style>:root>svg{display:none}:root>svg:target{display:block}</style><svg viewBox="0 0 502.664 502.664" id="icon" xmlns="http://www.w3.org/2000/svg"><g fill="#010002"><path d="M153.821 358.226L0 274.337v-46.463l153.821-83.414v54.574L46.636 250.523l107.185 53.431v54.272zM180.094 387.584L282.103 115.08h32.227L212.084 387.584h-31.99zM348.843 358.226v-54.272l107.164-52.999-107.164-52.59v-53.927l153.821 83.522v46.183l-153.821 84.083z"/></g></svg><svg viewBox="0 0 512 512" id="user-group" xmlns="http://www.w3.org/2000/svg"><path d="M320 32c-23.904 0-46.816 8.864-64.544 24.96-6.528 5.952-7.008 16.064-1.056 22.592 5.952 6.56 16.096 7.04 22.592 1.088C288.8 69.92 304.064 64 320 64c35.296 0 64 28.704 64 64 0 30.592-21.728 56.96-51.648 62.688-8.672 1.664-14.368 10.048-12.704 18.72 1.472 7.648 8.16 12.992 15.712 12.992.992 0 2.016-.096 3.04-.288C383.328 213.504 416 173.92 416 128c0-52.928-43.072-96-96-96zM511.872 335.328c-.064-1.152-.384-2.208-.672-3.296-.256-.928-.384-1.888-.8-2.752-.384-.864-1.024-1.568-1.568-2.336-.672-.928-1.28-1.888-2.112-2.656-.16-.16-.256-.384-.448-.544-55.168-46.272-124.672-70.112-196.192-67.424-8.8.352-15.68 7.776-15.36 16.608.32 8.832 8.192 16.352 16.608 15.36C372.48 286.016 431.904 305.76 480 343.904V384h-48c-8.832 0-16 7.168-16 16s7.168 16 16 16h48c17.632 0 32-14.368 32-32v-48c0-.256-.128-.448-.128-.672zM192 96c-52.928 0-96 43.072-96 96s43.072 96 96 96 96-43.072 96-96-43.072-96-96-96zm0 160c-35.296 0-64-28.704-64-64s28.704-64 64-64 64 28.704 64 64-28.704 64-64 64zM383.872 399.328c-.064-1.152-.384-2.208-.672-3.296-.256-.928-.384-1.888-.8-2.752-.384-.864-1.024-1.568-1.6-2.368-.672-.928-1.248-1.856-2.112-2.624-.192-.16-.256-.384-.448-.544-107.936-90.464-264.64-90.464-372.576 0-.192.16-.256.384-.448.544-.832.768-1.44 1.696-2.112 2.656-.544.8-1.184 1.504-1.568 2.336-.416.864-.544 1.824-.8 2.752-.288 1.088-.608 2.144-.672 3.296.064.224-.064.416-.064.672v48c0 17.632 14.368 32 32 32h320c17.632 0 32-14.368 32-32v-48c0-.256-.128-.448-.128-.672zM352 448H32v-40.096c93.888-74.4 226.112-74.4 320 0V448z"/></svg></svg>